{"title":"UnREAL.S01E01.Return.INTERNAL.HDTV.x264-FiHTV[rarbg]","uid":11982508,"size":369666493,"categoryP":"video","categoryS":"hd___tv_shows","magnet":"?xt=urn:btih:7ea43e83704a0c573e68b1a25e0c446173089fe5&amp;dn=UnREAL.S01E01.Return.INTERNAL.HDTV.x264-FiHTV%5Brarbg%5D&amp;tr=udp%3A%2F%2Ftracker.openbittorrent.com%3A80&amp;tr=udp%3A%2F%2Fopen.demonii.com%3A1337&amp;tr=udp%3A%2F%2Ftracker.coppersurfer.tk%3A6969&amp;tr=udp%3A%2F%2Fexodus.desync.com%3A6969","seeders":0,"leechers":0,"uploader":"vickey1992","files":3,"time":1433254738,"description":"Forever Immortal Hosts Television Division\nProudly Presents....\n\nUnREAL.S01E01.Return.INTERNAL.HDTV.x264-FiHTV\n\nVideo: 979kbps CRF19 x264 @ 720x404\nAudio: 132kbps AAC 48.0 KHz\nDuration: 44mn 6s @ 23.976fps\n\nShowdate: June 1st 2015\nPredate:  June 2nd 2015\nURL:\n\nRipper Notes:\nEnjoy!\n\n\nVideo\nID                                       : 1\nFormat                                   : AVC\nFormat/Info                              : Advanced Video Codec\nFormat profile                           : &lt;a class=&quot;__cf_email__&quot; href=&quot;/cdn-cgi/l/email-protection&quot; data-cfemail=&quot;eda5848a85ada1dec3dc&quot;&gt;[email&amp;#160;protected]&lt;/a&gt;&lt;script data-cfhash='f9e31' type=&quot;text/javascript&quot;&gt;\n/* &lt;![CDATA[ */!function(){try{var t=&quot;currentScript&quot;in document?document.currentScript:function(){for(var t=document.getElementsByTagName(&quot;script&quot;),e=t.length;e--;)if(t[e].getAttribute(&quot;data-cfhash&quot;))return t[e]}();if(t&amp;&amp;t.previousSibling){var e,r,n,i,c=t.previousSibling,a=c.getAttribute(&quot;data-cfemail&quot;);if(a){for(e=&quot;&quot;,r=parseInt(a.substr(0,2),16),n=2;a.length-n;n+=2)i=parseInt(a.substr(n,2),16)^r,e+=String.fromCharCode(i);e=document.createTextNode(e),c.parentNode.replaceChild(e,c)}t.parentNode.removeChild(t);}}catch(u){}}()/* ]]&gt; */&lt;/script&gt;\nFormat settings, CABAC                   : Yes\nFormat settings, ReFrames                : 5 frames\nCodec ID                                 : avc1\nCodec ID/Info                            : Advanced Video Coding\nDuration                                 : 44mn 6s\nBit rate                                 : 979 Kbps\nMaximum bit rate                         : 3 398 Kbps\nWidth                                    : 720 pixels\nHeight                                   : 404 pixels\nDisplay aspect ratio                     : 16:9\nFrame rate mode                          : Constant\nFrame rate                               : 23.976 fps\nColor space                              : YUV\nChroma subsampling                       : 4:2:0\nBit depth                                : 8 bits\nScan type                                : Progressive\nBits/(Pixel*Frame)                       : 0.140\nStream size                              : 309 MiB (88%)\nWriting library                          : x264 core 146 r2538 121396c\nEncoding settings                        : cabac=1 / ref=5 / deblock=1:0:0 / analyse=0x3:0x113 / me=umh / subme=8 / psy=1 / psy_rd=1.00:0.00 / mixed_ref=1 / me_range=16 / chroma_me=1 / trellis=1 / 8x8dct=1 / cqm=0 / deadzone=21,11 / fast_pskip=1 / chroma_qp_offset=-2 / threads=24 / lookahead_threads=3 / sliced_threads=0 / nr=0 / decimate=1 / interlaced=0 / bluray_compat=0 / constrained_intra=0 / bframes=3 / b_pyramid=2 / b_adapt=2 / b_bias=0 / direct=3 / weightb=1 / open_gop=0 / weightp=2 / keyint=250 / keyint_min=23 / scenecut=40 / intra_refresh=0 / rc_lookahead=50 / rc=crf / mbtree=1 / crf=19.0 / qcomp=0.60 / qpmin=0 / qpmax=69 / qpstep=4 / ip_ratio=1.40 / aq=1:1.00\nEncoded date                             : UTC 2015-06-02 07:07:53\nTagged date                              : UTC 2015-06-02 07:07:56\nColor range                              : Limited\nMatrix coefficients                      : BT.709\n\nAudio\nID                                       : 2\nFormat                                   : AAC\nFormat/Info                              : Advanced Audio Codec\nFormat profile                           : LC\nCodec ID                                 : 40\nDuration                                 : 44mn 6s\nBit rate mode                            : Variable\nBit rate                                 : 132 Kbps\nMaximum bit rate                         : 180 Kbps\nChannel(s)                               : 2 channels\nChannel positions                        : Front: L R\nSampling rate                            : 48.0 KHz\nCompression mode                         : Lossy\nStream size                              : 42.5 MiB (12%)\nEncoded date                             : UTC 2015-06-02 06:49:03\nTagged date                              : UTC 2015-06-02 07:07:56","torrent":{"xt":"urn:btih:7ea43e83704a0c573e68b1a25e0c446173089fe5","amp;dn":"UnREAL.S01E01.Return.INTERNAL.HDTV.x264-FiHTV%5Brarbg%5D","amp;tr":["udp%3A%2F%2Ftracker.openbittorrent.com%3A80","udp%3A%2F%2Fopen.demonii.com%3A1337","udp%3A%2F%2Ftracker.coppersurfer.tk%3A6969","udp%3A%2F%2Fexodus.desync.com%3A6969"],"infoHash":"7ea43e83704a0c573e68b1a25e0c446173089fe5","infoHashBuffer":{"type":"Buffer","data":[126,164,62,131,112,74,12,87,62,104,177,162,94,12,68,97,115,8,159,229]},"announce":[],"urlList":[]}}